<svg xmlns="http://www.w3.org/2000/svg" viewBox="0 0 512 512">
  <defs>
    <linearGradient id="g" x1="0" x2="1" y1="0" y2="1">
      <stop offset="0" stop-color="#78e0d3"/>
      <stop offset="0.55" stop-color="#9cb8ff"/>
      <stop offset="1" stop-color="#d8b4fe"/>
    </linearGradient>
  </defs>
  <rect width="512" height="512" rx="120" fill="#07131f"/>
  <circle cx="256" cy="256" r="170" fill="url(#g)" opacity="0.22"/>
  <path d="M170 278c-28-14-44-37-44-68 0-42 33-76 76-76 24 0 45 10 59 27 14-17 35-27 59-27 43 0 76 34 76 76 0 31-16 54-44 68 18 11 29 29 29 51 0 36-29 64-66 64-23 0-43-10-56-27-13 17-33 27-56 27-37 0-66-28-66-64 0-22 11-40 33-51Z" fill="#f4fbfb" opacity="0.92"/>
  <path d="M207 205c-18 0-32 15-32 33m130-33c18 0 32 15 32 33M207 331c-14 0-25-11-25-25m148 25c14 0 25-11 25-25" fill="none" stroke="#07131f" stroke-width="22" stroke-linecap="round" opacity="0.55"/>
</svg>
